<?xml version="1.0" encoding="UTF-8"?>
<svg version="1.1" xmlns="http://www.w3.org/2000/svg" width="640" height="239">
<path d="M0 0 C0.7289447 0.00054382 1.4578894 0.00108765 2.20892334 0.00164795 C13.23627301 0.03947399 23.32385372 0.68731604 33.8125 4.375 C34.44172363 4.58398926 35.07094727 4.79297852 35.71923828 5.00830078 C60.65395891 13.38260318 80.3324323 31.47012564 92.8125 54.375 C94.3468577 57.65671106 95.70191802 60.92722312 96.8125 64.375 C94.66368738 66.79909764 93.07208754 67.84542082 89.94628906 68.66186523 C89.1740802 68.86895615 88.40187134 69.07604706 87.60626221 69.28941345 C86.77197693 69.50199295 85.93769165 69.71457245 85.078125 69.93359375 C83.77279816 70.27923119 83.77279816 70.27923119 82.44110107 70.6318512 C79.65066855 71.3683927 76.85677138 72.09067468 74.0625 72.8125 C72.22761584 73.2939749 70.39297742 73.77638737 68.55859375 74.25976562 C64.98331249 75.20122642 61.40559645 76.13253676 57.82617188 77.05810547 C54.64412917 77.88505085 51.47533842 78.74454275 48.31445312 79.64892578 C47.6301825 79.84188736 46.94591187 80.03484894 46.24090576 80.23365784 C44.43663502 80.74550799 42.63564413 81.26888137 40.83496094 81.79321289 C37.69571735 82.39747925 35.8317051 82.37189807 32.8125 81.375 C30.33984375 79.08203125 30.33984375 79.08203125 27.75 76.1875 C18.25651511 66.15102084 5.55993988 61.4296075 -8.1875 61 C-24.25919417 61.52180825 -38.374786 68.75419949 -50.1875 79.375 C-50.81011719 79.90480469 -51.43273437 80.43460937 -52.07421875 80.98046875 C-63.97763957 91.81391916 -70.01971562 107.84305062 -71.125 123.625 C-71.78046122 138.33468672 -68.09099217 151.81472679 -58.41796875 163.12109375 C-48.33492612 173.31008779 -36.25261096 177.57466708 -22.1875 177.6875 C-6.49684892 177.70096323 6.84787413 172.47202383 18.1875 161.4375 C21.02569352 158.51640392 23.53014926 155.46589817 25.95947266 152.20483398 C26.76295639 151.12793556 26.76295639 151.12793556 27.58267212 150.02928162 C27.98851532 149.48336868 28.39435852 148.93745575 28.8125 148.375 C27.72041985 148.36286972 27.72041985 148.36286972 26.60627747 148.35049438 C19.73525173 148.27245908 12.86439945 148.18514144 5.99362659 148.08747292 C2.46152973 148.03758932 -1.07053839 147.99125893 -4.6027832 147.953125 C-8.66636761 147.90909746 -12.72959472 147.84947893 -16.79296875 147.7890625 C-18.0577153 147.77751129 -19.32246185 147.76596008 -20.62553406 147.75405884 C-21.80638077 147.73418915 -22.98722748 147.71431946 -24.20385742 147.69384766 C-25.24088303 147.68052399 -26.27790863 147.66720032 -27.34635925 147.6534729 C-30.5690834 147.33759931 -33.81782194 146.74467806 -36.1875 144.375 C-37.13013275 137.31983119 -34.12976936 132.00060206 -31.125 125.75 C-30.62274902 124.68563721 -30.12049805 123.62127441 -29.60302734 122.5246582 C-28.14924537 119.46564891 -26.67346365 116.41848338 -25.1875 113.375 C-24.81544434 112.60494629 -24.44338867 111.83489258 -24.06005859 111.04150391 C-18.60182708 99.84658726 -18.60182708 99.84658726 -13.1875 97.375 C-9.87532233 96.9495048 -6.59180408 96.99598285 -3.2565918 97.03442383 C-2.26099747 97.03398575 -1.26540314 97.03354767 -0.23963928 97.03309631 C3.04486836 97.03518314 6.32886298 97.05850972 9.61328125 97.08203125 C11.89299745 97.08762757 14.17271726 97.0918975 16.45243835 97.09489441 C22.44810982 97.1063403 28.44356274 97.13580555 34.43914795 97.16900635 C40.55901127 97.19971258 46.67890995 97.21340095 52.79882812 97.22851562 C64.80348136 97.26067527 76.80797249 97.31186876 88.8125 97.375 C89.10029579 96.37294525 89.10029579 96.37294525 89.39390564 95.35064697 C89.78274681 94.02127106 89.78274681 94.02127106 90.17944336 92.66503906 C90.43318222 91.79075256 90.68692108 90.91646606 90.948349 90.01568604 C92.32161714 85.81923194 94.28684669 82.00451119 96.375 78.125 C96.81336182 77.30507568 97.25172363 76.48515137 97.70336914 75.64038086 C104.52695686 63.14245408 112.95883912 52.59307141 122.8125 42.375 C123.53953125 41.58480469 124.2665625 40.79460938 125.015625 39.98046875 C149.54200892 14.04608872 186.68583677 3.85231404 221.3515625 2.20703125 C252.65777599 2.00889066 280.92906506 12.06144992 303.63671875 34.109375 C323.41195156 54.03519593 332.21369635 79.18093587 332.13641357 107.04220581 C332.13264709 107.72952789 332.12888062 108.41684998 332.125 109.125 C332.12284485 109.83254425 332.1206897 110.5400885 332.11846924 111.26907349 C332.06807221 121.5732265 331.75404367 131.40705202 328.8125 141.375 C328.51448486 142.38675293 328.51448486 142.38675293 328.21044922 143.41894531 C317.63553641 178.32011823 292.06484657 206.43672083 260.3125 223.6875 C228.39042122 240.4019928 190.88392731 244.29583962 156.359375 234.08984375 C140.36010868 229.04095405 127.06549584 220.71852922 114.8125 209.375 C113.99136719 208.63507813 113.17023438 207.89515625 112.32421875 207.1328125 C102.26273997 197.64478588 95.99863017 186.39601037 90.44140625 173.9296875 C88.92365493 170.37093894 88.92365493 170.37093894 86.8125 167.375 C86.42320312 168.09042969 86.03390625 168.80585938 85.6328125 169.54296875 C76.27636218 186.20779846 64.02484787 200.74581446 48.8125 212.375 C47.95011719 213.05304688 47.08773437 213.73109375 46.19921875 214.4296875 C26.64715315 229.31822338 1.44907579 238.48985356 -23.1875 239.375 C-24.39921875 239.4265625 -25.6109375 239.478125 -26.859375 239.53125 C-57.81178916 240.41760121 -85.10645334 230.34084308 -108.1171875 209.75390625 C-129.84179129 189.02225526 -138.68375651 162.16415845 -139.4375 132.8125 C-138.69078226 102.33708236 -127.52931962 73.14782794 -107.1875 50.375 C-106.42308594 49.50230469 -105.65867188 48.62960938 -104.87109375 47.73046875 C-102.672826 45.24951344 -100.44167723 42.80515389 -98.1875 40.375 C-97.63835937 39.77171875 -97.08921875 39.1684375 -96.5234375 38.546875 C-72.07111584 12.76955069 -34.84877972 -0.09797044 0 0 Z M186.8125 68.375 C185.31783203 69.11363281 185.31783203 69.11363281 183.79296875 69.8671875 C167.13018522 78.8081933 156.9050804 93.54703882 151.39208984 111.28125 C147.57703252 125.06302407 148.0031614 139.56695834 154.8125 152.375 C162.72282565 165.41238858 173.86734641 173.95637125 188.5 178.1875 C205.72103634 182.05615386 220.91144947 178.01974821 235.8125 169.375 C238.98223874 167.21338823 241.89902623 164.86640111 244.8125 162.375 C245.40160156 161.94058594 245.99070312 161.50617188 246.59765625 161.05859375 C260.03046964 150.80804139 266.3109499 133.45085294 268.8125 117.375 C270.39221208 104.10974649 265.60309166 90.24252902 257.80859375 79.65234375 C248.3448865 68.42794678 236.10524031 62.14313004 221.5625 60.4375 C209.39162424 59.83988814 197.65022551 62.96352996 186.8125 68.375 Z " fill="#00ACD7" transform="translate(308.1875,-0.375)"/>
<path d="M0 0 C1.23121582 -0.00137466 2.46243164 -0.00274933 3.73095703 -0.00416565 C5.10269189 -0.00062628 6.47442651 0.00300853 7.84616089 0.00672913 C9.28486123 0.00701108 10.72356171 0.00685311 12.16226196 0.00628662 C16.07525441 0.00599895 19.98821638 0.01189074 23.90120173 0.01886058 C27.98782352 0.02509921 32.07444596 0.02569832 36.16107178 0.02688599 C43.90294238 0.02999779 51.64479892 0.03820917 59.38666332 0.04823548 C68.19911567 0.05940127 77.01156868 0.06490824 85.82402635 0.06993091 C103.95494767 0.0803919 122.08585588 0.09798844 140.21676636 0.12025452 C139.73531695 4.9347486 139.41590765 7.72197192 137.21676636 12.12025452 C87.38676636 12.12025452 37.55676636 12.12025452 -13.78323364 12.12025452 C-12.90932097 8.62460384 -12.36379292 7.19336379 -10.34573364 4.43275452 C-9.91389771 3.83076233 -9.48206177 3.22877014 -9.03713989 2.60853577 C-6.45077156 -0.4612659 -3.79921309 -0.00325833 0 0 Z " fill="#00ACD7" transform="translate(13.783233642578125,88.87974548339844)"/>
<path d="M0 0 C0.96196289 -0.00137466 1.92392578 -0.00274933 2.91503906 -0.00416565 C3.9738327 -0.00057037 5.03262634 0.0030249 6.12350464 0.00672913 C7.79180328 0.00651009 7.79180328 0.00651009 9.49380493 0.00628662 C13.1840304 0.00698541 16.87420591 0.01477628 20.56442261 0.02259827 C23.11747205 0.02446256 25.67052185 0.02588641 28.22357178 0.02688599 C34.26547927 0.03031898 40.30736519 0.03820705 46.34926403 0.04823548 C53.22704886 0.05940407 60.10483455 0.06490895 66.9826262 0.06993091 C81.1322975 0.08038985 95.28195282 0.09798465 109.43161011 0.12025452 C108.56821876 5.58668691 106.73241337 9.52988294 102.43161011 13.12025452 C98.64781519 14.25157175 95.02676544 14.13464036 91.10202026 14.02845764 C89.40358475 14.03020996 89.40358475 14.03020996 87.6708374 14.03199768 C83.93619209 14.02643349 80.20475846 13.96425086 76.47067261 13.90150452 C73.87851709 13.8865803 71.28633899 13.87519414 68.69415283 13.86720276 C62.57386737 13.8398015 56.45490311 13.77678733 50.33511484 13.69640684 C43.36550084 13.60685961 36.39583077 13.56297016 29.42578435 13.52284336 C15.09377704 13.43931424 0.76273442 13.29868141 -13.56838989 13.12025452 C-12.90520073 9.33482524 -12.22932666 7.24187657 -9.63088989 4.37025452 C-9.10624146 3.77728577 -8.58159302 3.18431702 -8.04104614 2.57337952 C-5.43712449 0.00399263 -3.53449789 -0.00388406 0 0 Z " fill="#00ACD6" transform="translate(60.568389892578125,59.87974548339844)"/>
<path d="M0 0 C1.78204079 0.00333092 1.78204079 0.00333092 3.6000824 0.00672913 C4.58053528 0.00651009 4.58053528 0.00651009 5.58079529 0.00628662 C7.75058766 0.00698569 9.92029517 0.01477774 12.09007263 0.02259827 C13.59079949 0.02446247 15.09152696 0.02588636 16.59225464 0.02688599 C20.54934865 0.03071099 24.50640616 0.04054112 28.46348572 0.05158997 C32.49851488 0.06180446 36.53354991 0.06638369 40.56858826 0.07142639 C48.49113108 0.08216341 56.41364419 0.09923962 64.33616638 0.12025452 C64.42000717 4.3961345 64.18344841 7.88384439 63.33616638 12.12025452 C39.57616638 12.12025452 15.81616638 12.12025452 -8.66383362 12.12025452 C-7.66271089 7.11464088 -5.91349097 0.26695511 0 0 Z " fill="#00ACD7" transform="translate(83.66383361816406,117.87974548339844)"/>
</svg>
