<?xml version="1.0" encoding="utf-8"?>
<!-- Generator: Adobe Illustrator 24.2.0, SVG Export Plug-In . SVG Version: 6.00 Build 0)  -->
<svg version="1.1" id="Layer_1" xmlns="http://www.w3.org/2000/svg" xmlns:xlink="http://www.w3.org/1999/xlink" x="0px" y="0px"
	 viewBox="0 0 1000 1000" style="enable-background:new 0 0 1000 1000;" xml:space="preserve">
<style type="text/css">
	.st0{fill:#E92E2F;stroke:#E92E2F;stroke-width:9.375000e-02;stroke-miterlimit:10;}
	.st1{fill:#0774BB;stroke:#0774BB;stroke-width:9.375000e-02;stroke-miterlimit:10;}
</style>
<g>
	<path class="st0" d="M554.7,103.8c12.4,14.2,16.5,34.4,13,52.7c-3.8,20.5-15.2,38.6-28.6,54.3c-10.7,12.6-23,23.7-35.9,34
		c-15,12-29.6,25-39,42c-7.9,13.8-9.8,30.7-4.4,45.7c8.9,25.7,29.5,44.7,40.8,69c-12.4-11-24.6-22.4-36-34.4
		c-11.9-12.7-23.2-26.2-30.6-42.1c-5-11.1-7.3-24.1-3.4-35.9c3.8-12,12.4-21.7,21-30.7c24-24,53.5-41.6,76.9-65.9
		c13-13.4,23.7-29.4,27.4-47.8C558.9,131.1,557.5,117.2,554.7,103.8L554.7,103.8z"/>
	<path class="st0" d="M535.1,254.5c25.7-18.9,55.7-31,86.2-39.7c-24.1,15.4-49.2,29.4-70,49.1c-7.5,7.3-14.7,15.6-18,25.8
		c-2.5,7.5-1.5,15.9,1.6,23c5.6,12.7,15,23,22.1,34.7c6.1,9.9,7.1,22.6,2.5,33.4c-7,15.8-20.8,27.3-35.1,36.4
		c-1.9,1.1-3.4,3-5.7,3.3c9.5-8.6,16.9-20.8,16.7-33.9c-0.3-9.8-5.7-18.4-12-25.4c-13.1-15.6-24.1-35.5-21.8-56.5
		C503.7,283.7,518.8,266.7,535.1,254.5L535.1,254.5z"/>
	<path class="st1" d="M626.2,407.5c5.6-6.7,14.4-8.5,22.5-9.5c14-1.9,29,1.7,39.6,11.4c8.7,7.8,13.6,20,11.8,31.8
		c-2,13.6-11.1,25-21.4,33.6c-18.7,15-41.7,23.7-64.7,29.5c1.3-1.5,2.8-2.8,4.5-3.8c17.5-9.4,34.8-20.4,47.6-35.7
		c7.8-9.5,13.9-22,11.4-34.5c-2.6-14.6-16.8-25.1-31.2-25.9C639.3,403.6,632.8,406.2,626.2,407.5L626.2,407.5z"/>
	<path class="st1" d="M360.1,419.6c24.4-10.5,50.8-17.2,77.4-16.8c-15.5,4.5-31.4,8.3-45.9,15.2c-3.4,1.9-7.4,3.6-9.4,7.1
		c-1.1,2.8,1.9,4.6,4,5.6c9,3.7,18.9,4.2,28.6,5.2c33.9,2.2,67.9,0.9,101.7-1.2c33.4-2.1,66.4-6.6,99.4-11.9
		c-7.3,3.4-14.7,6.9-21.4,11.3c-3.4,2.4-7.7,3-11.5,4c-40.5,9-82.1,11.8-123.4,12.4c-16,0.1-31.9-0.1-47.8-1.2
		c-17.7-1.2-35.6-2.5-52.9-7.1c-5-1.5-10.3-3-14.3-6.6c-2-1.6-2-4.8-0.3-6.6C348.6,424.4,354.7,422.2,360.1,419.6L360.1,419.6z"/>
	<path class="st1" d="M391.4,476.1c6.9-5.4,15.1-8.5,23.3-11.4c-2.6,3.2-6.4,6.2-6.6,10.6c-0.1,2.8,2.1,4.9,4.4,6.2
		c4.4,2.2,9.3,3,14.2,3.7c25.4,2.6,51.1,4.1,76.8,2.4c23.4-1.2,46.7-5,69.9-9.1c6.4,6,13.9,10.1,21.8,13.6
		c-27.9,8.2-56.7,13-85.5,15.2c-27.3,1.9-54.9,1.7-82.1-2.6c-10.7-2-21.7-4.2-31.5-9.3c-4-2.1-8.5-4.9-9.7-9.5
		C385.5,481.9,388.5,478.4,391.4,476.1L391.4,476.1z"/>
	<path class="st1" d="M406.7,533.8c6.1-4.9,13.6-7.4,21-9.5c-2.4,2.2-6.6,5-4.8,8.9c3.6,4.6,10.2,5.2,15.5,6.4
		c22.4,2.8,45,4.6,67.4,2.9c16.9-1.1,33.6-4.1,50.2-7c9.5,5.6,19.5,10.3,29.6,14.6c-15.6,7-32.4,11.5-49.2,14.7
		c-28.3,5-57.6,5.7-86,1.2c-12.6-2.3-25.4-5.2-36.8-11.4c-4.4-2.5-9-5.4-10.9-10.3C401.3,540.3,403.7,536.2,406.7,533.8L406.7,533.8
		z"/>
	<path class="st1" d="M333.3,571.3c12.2-4.1,24.8-7.4,37.6-7.8c5.2-0.1,10.5,0.1,15,2.8c-15.4,0.9-30.7,4.8-44.5,11.8
		c-3,1.7-6.5,3.7-7.7,7.3c0,4.1,4.6,5.4,7.7,6.7c19.2,7.1,39.7,9.4,59.8,11.5c60,5,120.3,3.7,180.3-1.7c22.6-2.5,45.4-5,67.4-11.3
		c7-2.4,15-4.8,19.6-11c2.8-3.7,0.9-8.3-1.9-11.5c4.5,2.5,10.9,5.7,9.9,11.8c-1.7,6.4-8.2,9.7-13.5,12.7
		c-16.9,8.6-35.6,13-54.1,16.8C555,620,499.8,622.4,445,620.8c-41.3-1.5-82.6-5.4-123.4-12.4c-7.3-1.7-15.5-3.2-20.8-8.9
		c-3.4-4-0.4-9.5,2.9-12.4C312.1,579.3,322.8,575.1,333.3,571.3L333.3,571.3z"/>
	<path class="st1" d="M663.1,616.5c13.4-4.6,27.7-9.5,37.6-20.1c-1.7,11.5-11.6,19.5-21.4,24.6c-18.8,9.8-39.8,14.3-60.8,18
		c-44.2,7-89.1,8.7-133.9,7.9c-30.6-0.9-61.4-2.1-91.5-8.5c-7.1-2-14.8-3.3-21-7.5c26.7,4.5,53.9,6.4,81,7.4
		c44.6,1.3,89.3-0.4,133.7-6C612.4,628.9,638.2,624.5,663.1,616.5L663.1,616.5z"/>
	<path class="st0" d="M314.3,812.8c0.1-43.4-0.1-86.8,0.1-130.4c9,0.3,18,0,27,0.3c-0.1,48.6,0,97.3-0.1,146
		c-0.3,13.6-0.5,27.9-7.1,40.1c-7.3,13-20.3,22.1-34,27.4c-4.4-4.8-8.3-9.8-12.7-14.6l0,0c11.1-6.5,22.2-15.8,24.9-29.1
		C314.9,839.4,314.1,826.1,314.3,812.8L314.3,812.8z"/>
	<path class="st0" d="M366.5,734.7c17.9-7.7,37.7-11.6,57.2-9.5c10.1,1.2,20.5,4.9,27,13c5.4,6.9,7.4,15.8,7.3,24.4
		c0,29.6,0,59.2,0,88.8c-6.6,0-13.2,0-20,0c-0.7-4.4-1.3-8.9-1.9-13.4c-7.5,6-15.6,11.6-25,14c-10.7,2.8-22.5,2.5-33-1.6
		c-8.1-3.3-14.4-10.6-16.7-19.1c-3.3-12.3-1.6-26.7,7.1-36.7c7.8-9.1,19.6-13.6,31.2-15.7c10.7-2.1,21.7-2.1,32.7-2.1
		c-0.3-8.3,1.3-17.5-3.4-24.9c-3.8-5.7-10.9-7.9-17.3-8.3c-14.2-1.2-28.2,2.4-41.6,7C368.9,745.3,367.7,740,366.5,734.7
		 M399.3,796.2c-5.8,1.9-11.3,6.1-12.8,12.2c-1.9,6.7-1.3,14.7,3,20.4c4.2,5.6,11.9,6.9,18.5,6.1c9.3-1.1,17.3-6.4,24.5-12
		c0-9.9-0.1-19.7,0-29.6C421.4,793.1,410,792.4,399.3,796.2L399.3,796.2z"/>
	<path class="st0" d="M599.2,734.7c18-7.7,37.9-11.8,57.4-9.5c9.8,1.2,19.9,4.8,26.3,12.4c6.1,7.3,7.9,16.9,7.8,26.2
		c-0.1,29.3,0.1,58.4-0.3,87.6c-6.6-0.3-13.2,0.1-19.9-0.3c-0.7-4.5-1.2-8.9-2-13.2c-9.3,7.9-20.4,14.4-33,15.5
		c-11.5,1.1-24.5-0.4-33.5-8.6c-9.4-8.7-11-22.9-8.6-34.9c2.3-11.1,10.6-20.2,20.6-25.1c15.7-7.7,33.8-8.1,51-7.9
		c-0.3-8.1,1.2-16.7-2.9-24c-3.2-5.8-9.9-8.5-16.3-9.1c-14.7-1.6-29.4,2.1-43.2,6.9C601.7,745.3,600.4,740,599.2,734.7 M631.6,796.3
		c-5.6,1.9-10.7,6.1-12.4,11.9c-1.9,6.7-1.3,14.7,2.9,20.5c4.4,5.7,12.2,6.9,18.9,6.1c9.1-1.3,17.5-6.4,24.4-12.4
		c-0.3-9.7-0.1-19.5-0.1-29.3C654,793.1,642.4,792.4,631.6,796.3L631.6,796.3z"/>
	<path class="st0" d="M473,726.8c9.3,0,18.5,0,27.8,0c5.4,17.5,10.7,34.8,16.1,52.3c3.2,10.7,7.1,21.3,9.4,32.3
		c1.2,4.9,2.2,9.9,3.7,14.7c11.4-32.2,20.1-65.4,24.6-99.3c9,0,18,0,27,0c-7.8,42.9-20.1,85.1-38.6,124.5c-10.6,0-21.2,0-31.8,0
		C498.6,809.8,485.7,768.4,473,726.8L473,726.8z"/>
	<g>
		<path class="st0" d="M696,724.4h-3.3v-1.2h7.9v1.2h-3.3v9.5H696V724.4z"/>
		<path class="st0" d="M710.9,729.2c-0.1-1.5-0.2-3.3-0.2-4.6h0c-0.4,1.2-0.8,2.6-1.3,4.1l-1.9,5.2h-1l-1.7-5.1
			c-0.5-1.5-0.9-2.9-1.2-4.2h0c0,1.3-0.1,3.1-0.2,4.7l-0.3,4.6h-1.3l0.7-10.7h1.8l1.8,5.2c0.4,1.3,0.8,2.5,1.1,3.6h0
			c0.3-1.1,0.7-2.3,1.1-3.6l1.9-5.2h1.8l0.7,10.7h-1.4L710.9,729.2z"/>
	</g>
</g>
</svg>
